<svg xmlns="http://www.w3.org/2000/svg" width="40" height="40" viewBox="0 0 40 40" fill="none">
    <path d="M24.9023 28.186C28.5674 28.7721 31.0977 30 31.0977 31.4139C31.0977 33.4046 26.1302 35.0139 20 35.0139C13.8698 35.0139 8.90234 33.3953 8.90234 31.4139C8.90234 30 11.4233 28.7721 15.0977 28.186" stroke="#2097F3" stroke-miterlimit="16.96" stroke-linecap="round" stroke-linejoin="round"/>
    <path d="M12.3626 18.1953C12.0742 17.6836 11.8137 17.1627 11.6277 16.6046C11.33 15.7301 11.1719 14.7906 11.1719 13.8139C11.1719 8.75342 15.4416 4.68831 20.5765 5.01389C24.93 5.29296 28.4742 8.80924 28.7812 13.1627C28.8649 14.2976 28.7254 15.3953 28.4184 16.4092C28.223 17.0418 27.944 17.6464 27.6091 18.2139L19.9905 31.4883L12.3626 18.1953Z" stroke="#2097F3" stroke-miterlimit="16.96" stroke-linecap="round" stroke-linejoin="round"/>
    <path d="M24.1395 13.8046C24.1395 16.093 22.279 17.9534 19.9906 17.9534C17.7023 17.9534 15.8418 16.093 15.8418 13.8046C15.8418 11.5162 17.7023 9.65576 19.9906 9.65576C22.279 9.65576 24.1395 11.5162 24.1395 13.8046Z" stroke="#2097F3" stroke-miterlimit="16.96" stroke-linecap="round" stroke-linejoin="round"/>
</svg>