<svg width="25" height="25" viewBox="0 0 25 25" fill="none" xmlns="http://www.w3.org/2000/svg">
<g id="Frame">
<g id="Group">
<path id="Vector" d="M18.8002 4.10742H22.7555C22.8626 4.10742 22.9654 4.14998 23.0411 4.22573C23.1169 4.30149 23.1595 4.40423 23.1595 4.51137V6.07601C23.1595 6.18315 23.1169 6.28589 23.0411 6.36164C22.9654 6.4374 22.8626 6.47996 22.7555 6.47996H17.3128M8.02045 6.47996H2.57777C2.47064 6.47996 2.36789 6.4374 2.29214 6.36164C2.21639 6.28589 2.17383 6.18315 2.17383 6.07601V4.51137C2.17383 4.45832 2.18428 4.40579 2.20458 4.35678C2.22488 4.30777 2.25463 4.26324 2.29214 4.22573C2.32965 4.18822 2.37418 4.15847 2.42319 4.13817C2.4722 4.11787 2.52473 4.10742 2.57777 4.10742H8.02045" stroke="#CACED3" stroke-miterlimit="10" stroke-linecap="round" stroke-linejoin="round"/>
<path id="Vector_2" d="M3.27344 6.47998V22.8583H22.0618V6.47998" stroke="#CACED3" stroke-miterlimit="10" stroke-linecap="round" stroke-linejoin="round"/>
<path id="Vector_3" d="M4.74023 12.9849V22.8583H20.5923V6.47998M4.74023 6.47998V11.4997" stroke="#CACED3" stroke-miterlimit="10" stroke-linecap="round" stroke-linejoin="round"/>
<path id="Vector_4" d="M17.3125 6.47998H20.5922V11.4997H4.74036V6.47998H8.02008M20.5922 8.13801H17.3125M8.02008 8.13801H4.74036M4.74023 9.81898H20.5923" stroke="#CACED3" stroke-miterlimit="10" stroke-linecap="round" stroke-linejoin="round"/>
<path id="Vector_5" d="M16.5429 9.81605H8.78871C8.3639 9.81605 8.01953 9.47168 8.01953 9.04686V2.62758C8.01953 2.20276 8.3639 1.8584 8.78871 1.8584H16.5429C16.9677 1.8584 17.3121 2.20276 17.3121 2.62758V9.04691C17.3121 9.47168 16.9677 9.81605 16.5429 9.81605Z" stroke="#CACED3" stroke-miterlimit="10" stroke-linecap="round" stroke-linejoin="round"/>
<path id="Vector_6" d="M12.6665 5.83739C12.3816 5.55243 11.9196 5.55243 11.6347 5.83739L10.6929 6.77922C10.4079 7.06413 10.4079 7.52609 10.6929 7.81105C10.9778 8.09601 11.4398 8.09601 11.7247 7.81105L12.6665 6.86922C12.9515 6.5843 12.9515 6.12234 12.6665 5.83739ZM12.6665 5.83739L14.8539 3.65005M14.08 8.28272L13.8639 8.06668C13.579 7.78172 13.579 7.31977 13.8639 7.03485C14.1489 6.74989 14.6109 6.74989 14.8958 7.03485L15.1118 7.25089M11.4668 4.63764C11.1818 4.9226 10.7199 4.9226 10.4349 4.63764C10.1499 4.35268 10.1499 3.89072 10.4349 3.60581C10.7199 3.32085 11.1818 3.32085 11.4667 3.60581C11.7517 3.89072 11.7517 4.35272 11.4668 4.63764ZM11.4668 4.63764L13.8639 7.03481M3.27234 22.8586H2.17383M22.0607 22.8586H23.1592M11.5476 21.0974H18.1549C18.6286 21.0974 19.0126 20.7134 19.0126 20.2398V17.7008C19.0126 17.256 18.8377 16.829 18.5257 16.5119L17.6918 15.6644L16.9331 13.4105C16.8726 13.2306 16.7571 13.0743 16.603 12.9635C16.4488 12.8528 16.2638 12.7932 16.074 12.7932H9.25902C9.06922 12.7932 8.88421 12.8528 8.73007 12.9635C8.57593 13.0743 8.46044 13.2306 8.39988 13.4105L7.64126 15.6644L6.80731 16.5119C6.49531 16.829 6.32045 17.256 6.32046 17.7008V20.2398C6.32046 20.7134 6.70446 21.0974 7.17812 21.0974H10.0636" stroke="#CACED3" stroke-miterlimit="10" stroke-linecap="round" stroke-linejoin="round"/>
<path id="Vector_7" d="M11.7871 19.4685H13.5461M7.64137 15.6641L6.91406 15.0857M17.692 15.6641L18.4193 15.0857M8.64971 16.3743L9.45726 13.9751H15.8759L16.6835 16.3743C14.0056 16.7563 11.3276 16.7563 8.64971 16.3743ZM8.05351 21.097H10.0637V22.3602C10.0637 22.6352 9.84071 22.8582 9.56568 22.8582H8.55151C8.27648 22.8582 8.05351 22.6352 8.05351 22.3602V21.097ZM15.2695 21.097H17.2797V22.3602C17.2797 22.6352 17.0567 22.8582 16.7817 22.8582H15.7675C15.4925 22.8582 15.2695 22.6352 15.2695 22.3602V21.097H15.2695ZM9.59708 19.8851H8.78112C8.37929 19.8851 8.05351 19.5593 8.05351 19.1574C8.05351 18.7043 8.46325 18.3614 8.90927 18.4412L9.71247 18.585C9.86381 18.612 10.0008 18.6915 10.0995 18.8094C10.1982 18.9273 10.2522 19.0761 10.2522 19.2299C10.2523 19.5917 9.95894 19.8851 9.59708 19.8851ZM15.582 19.8851H16.398C16.7998 19.8851 17.1256 19.5593 17.1256 19.1574C17.1256 18.7043 16.7159 18.3614 16.2698 18.4412L15.4666 18.585C15.3153 18.612 15.1783 18.6915 15.0796 18.8094C14.9809 18.9273 14.9269 19.0761 14.9269 19.2299C14.9269 19.5917 15.2202 19.8851 15.582 19.8851Z" stroke="#CACED3" stroke-miterlimit="10" stroke-linecap="round" stroke-linejoin="round"/>
</g>
</g>
</svg>
